HIERARCHY
ROOT Idle
{
	OFFSET 0.000000 0.000000 0.000000
	CHANNELS 6 Xposition Yposition Zposition Xrotation Yrotation Zrotation
	JOINT BR_Root
	{
		OFFSET 0.011196 146.613800 -47.121105
		CHANNELS 3 Xrotation Yrotation Zrotation
		JOINT Hip
		{
			OFFSET -0.000001 0.000000 0.000004
			CHANNELS 3 Xrotation Yrotation Zrotation
			JOINT B_L_Leg_1
			{
				OFFSET 19.272741 -18.122696 -18.212677
				CHANNELS 3 Xrotation Yrotation Zrotation
				JOINT B_L_Leg_2
				{
					OFFSET -1.105446 -37.251808 6.904991
					CHANNELS 3 Xrotation Yrotation Zrotation
					JOINT B_L_Leg_3
					{
						OFFSET 2.988464 -34.227859 -35.822845
						CHANNELS 3 Xrotation Yrotation Zrotation
						JOINT B_L_Leg_4
						{
							OFFSET -4.953039 -37.344734 0.868431
							CHANNELS 3 Xrotation Yrotation Zrotation
							JOINT B_L_Leg_5
							{
								OFFSET 0.000534 -11.648654 8.345673
								CHANNELS 3 Xrotation Yrotation Zrotation
								JOINT B_L_Leg______END
								{
									OFFSET -0.000031 -7.398830 2.834976
									CHANNELS 3 Xrotation Yrotation Zrotation
									End Site
									{
										OFFSET 0.000484 7.923370 -0.000572
									}
								}
							}
						}
					}
				}
			}
			JOINT Tail
			{
				OFFSET 6.878351 -2.423019 -49.014999
				CHANNELS 3 Xrotation Yrotation Zrotation
				JOINT Tail_1
				{
					OFFSET 0.426839 -2.592819 -3.316254
					CHANNELS 3 Xrotation Yrotation Zrotation
					JOINT Tail_2
					{
						OFFSET 0.368567 -3.263840 -2.863396
						CHANNELS 3 Xrotation Yrotation Zrotation
						JOINT Tail_3
						{
							OFFSET 0.367414 -4.131454 -2.854347
							CHANNELS 3 Xrotation Yrotation Zrotation
							JOINT Tail_4
							{
								OFFSET 0.488320 -7.735268 -3.760529
								CHANNELS 3 Xrotation Yrotation Zrotation
								JOINT Tail_5
								{
									OFFSET 0.384741 -10.198730 -2.828117
									CHANNELS 3 Xrotation Yrotation Zrotation
									JOINT Tail_6
									{
										OFFSET 0.228124 -13.473534 -1.226143
										CHANNELS 3 Xrotation Yrotation Zrotation
										JOINT Tail_7
										{
											OFFSET 0.108205 -17.395943 0.608932
											CHANNELS 3 Xrotation Yrotation Zrotation
											JOINT Tail_8
											{
												OFFSET 0.247746 -21.716175 0.840424
												CHANNELS 3 Xrotation Yrotation Zrotation
												JOINT Tail_9
												{
													OFFSET 0.195683 -19.571095 -0.696320
													CHANNELS 3 Xrotation Yrotation Zrotation
													JOINT Tail___CAP
													{
														OFFSET 0.066158 -22.029541 -2.434341
														CHANNELS 3 Xrotation Yrotation Zrotation
														End Site
														{
															OFFSET 0.234086 22.162331 0.086906
														}
													}
												}
											}
										}
									}
								}
							}
						}
					}
				}
			}
			JOINT B_R_Leg_1
			{
				OFFSET -14.032607 -18.123199 -22.499062
				CHANNELS 3 Xrotation Yrotation Zrotation
				JOINT B_R_Leg_2
				{
					OFFSET -1.619373 -36.781303 9.005909
					CHANNELS 3 Xrotation Yrotation Zrotation
					JOINT B_R_Leg_3
					{
						OFFSET -4.405123 -34.544182 -35.370235
						CHANNELS 3 Xrotation Yrotation Zrotation
						JOINT B_R_Leg_4
						{
							OFFSET 2.688002 -37.496296 2.591019
							CHANNELS 3 Xrotation Yrotation Zrotation
							JOINT B_R_Leg_5
							{
								OFFSET 0.000166 -11.649652 8.344238
								CHANNELS 3 Xrotation Yrotation Zrotation
								JOINT B_R_Leg______END
								{
									OFFSET -0.000029 -7.399157 2.834076
									CHANNELS 3 Xrotation Yrotation Zrotation
									End Site
									{
										OFFSET -0.000187 -7.923352 -0.000397
									}
								}
							}
						}
					}
				}
			}
		}
		JOINT Spine_1
		{
			OFFSET -0.000001 0.000000 0.000004
			CHANNELS 3 Xrotation Yrotation Zrotation
			JOINT Spine_2
			{
				OFFSET -0.400786 -5.276291 20.451311
				CHANNELS 3 Xrotation Yrotation Zrotation
				JOINT Spine_3
				{
					OFFSET -2.165832 -2.243027 21.372900
					CHANNELS 3 Xrotation Yrotation Zrotation
					JOINT Spine_4
					{
						OFFSET -2.816490 0.481766 21.889019
						CHANNELS 3 Xrotation Yrotation Zrotation
						JOINT Spine_5
						{
							OFFSET -2.598962 1.103973 20.198662
							CHANNELS 3 Xrotation Yrotation Zrotation
							JOINT F_L_Leg_1
							{
								OFFSET 6.713249 -13.935944 8.224041
								CHANNELS 3 Xrotation Yrotation Zrotation
								JOINT F_L_Leg_2
								{
									OFFSET 6.247631 -16.500847 13.711555
									CHANNELS 3 Xrotation Yrotation Zrotation
									JOINT F_L_Leg_3
									{
										OFFSET 6.088474 -22.693214 -23.967663
										CHANNELS 3 Xrotation Yrotation Zrotation
										JOINT F_L_Leg_4
										{
											OFFSET 3.762016 -40.709015 6.077370
											CHANNELS 3 Xrotation Yrotation Zrotation
											JOINT F_L_Leg_5
											{
												OFFSET 2.022966 -28.121128 -13.642796
												CHANNELS 3 Xrotation Yrotation Zrotation
												JOINT F_L_Leg_6
												{
													OFFSET 0.000084 -10.796104 8.137058
													CHANNELS 3 Xrotation Yrotation Zrotation
													JOINT F_L_Leg______END
													{
														OFFSET 0.000004 -7.819414 3.754108
														CHANNELS 3 Xrotation Yrotation Zrotation
														End Site
														{
															OFFSET 0.000101 8.673902 -0.000175
														}
													}
												}
											}
										}
									}
								}
							}
							JOINT Neck_1
							{
								OFFSET -2.502444 -11.763016 20.586391
								CHANNELS 3 Xrotation Yrotation Zrotation
								JOINT Neck_2
								{
									OFFSET 0.065398 12.170349 11.324654
									CHANNELS 3 Xrotation Yrotation Zrotation
									JOINT Neck_3
									{
										OFFSET 0.025290 9.645569 8.711075
										CHANNELS 3 Xrotation Yrotation Zrotation
										JOINT Neck_4
										{
											OFFSET -0.059159 11.803452 9.014275
											CHANNELS 3 Xrotation Yrotation Zrotation
											JOINT Neck_5
											{
												OFFSET -0.171318 9.490906 8.086021
												CHANNELS 3 Xrotation Yrotation Zrotation
												JOINT Neck_6
												{
													OFFSET -0.647655 7.811829 9.355843
													CHANNELS 3 Xrotation Yrotation Zrotation
													JOINT Head
													{
														OFFSET -1.443578 3.837982 13.345428
														CHANNELS 3 Xrotation Yrotation Zrotation
														JOINT Ear_L_1
														{
															OFFSET 8.454196 6.267670 1.099556
															CHANNELS 3 Xrotation Yrotation Zrotation
															JOINT Ear_L_2
															{
																OFFSET 2.682889 5.247238 1.847664
																CHANNELS 3 Xrotation Yrotation Zrotation
																JOINT Ear_L_______END
																{
																	OFFSET 3.926558 5.930420 4.230682
																	CHANNELS 3 Xrotation Yrotation Zrotation
																	End Site
																	{
																		OFFSET 4.938926 6.639374 -0.110329
																	}
																}
															}
														}
														JOINT Upper_Lip
														{
															OFFSET -5.225570 -28.530640 32.209824
															CHANNELS 3 Xrotation Yrotation Zrotation
															JOINT Upper_Lip________END
															{
																OFFSET -1.138157 -6.528290 6.728653
																CHANNELS 3 Xrotation Yrotation Zrotation
																End Site
																{
																	OFFSET 0.114592 9.333786 -1.433945
																}
															}
														}
														JOINT Jaw
														{
															OFFSET -0.327391 -12.909744 2.559357
															CHANNELS 3 Xrotation Yrotation Zrotation
															JOINT Lower_Lip
															{
																OFFSET -3.836265 -22.949799 24.542618
																CHANNELS 3 Xrotation Yrotation Zrotation
																JOINT Lower_Lip_________END
																{
																	OFFSET -0.981403 -4.979752 5.745316
																	CHANNELS 3 Xrotation Yrotation Zrotation
																	End Site
																	{
																		OFFSET 0.093052 7.576660 -1.164169
																	}
																}
															}
														}
														JOINT Ear_R_1
														{
															OFFSET -8.479894 5.994888 -2.029617
															CHANNELS 3 Xrotation Yrotation Zrotation
															JOINT Ear_R_2
															{
																OFFSET -3.327923 5.150330 0.736061
																CHANNELS 3 Xrotation Yrotation Zrotation
																JOINT Ear_R_______END
																{
																	OFFSET -5.361641 5.781433 2.513390
																	CHANNELS 3 Xrotation Yrotation Zrotation
																	End Site
																	{
																		OFFSET 4.777678 -6.482788 1.906975
																	}
																}
															}
														}
													}
												}
											}
										}
									}
								}
							}
							JOINT F_R_Leg_1
							{
								OFFSET -8.255445 -14.105957 6.307331
								CHANNELS 3 Xrotation Yrotation Zrotation
								JOINT F_R_Leg_2
								{
									OFFSET -9.844995 -16.338837 11.637779
									CHANNELS 3 Xrotation Yrotation Zrotation
									JOINT F_R_Leg_3
									{
										OFFSET 0.351200 -21.095245 -26.102848
										CHANNELS 3 Xrotation Yrotation Zrotation
										JOINT F_R_Leg_4
										{
											OFFSET 5.358654 -40.411160 6.822205
											CHANNELS 3 Xrotation Yrotation Zrotation
											JOINT F_R_Leg_5
											{
												OFFSET 3.480070 -30.014305 -8.249077
												CHANNELS 3 Xrotation Yrotation Zrotation
												JOINT F_R_Leg_6
												{
													OFFSET -0.002628 -10.795353 8.138073
													CHANNELS 3 Xrotation Yrotation Zrotation
													JOINT F_R_Leg______END
													{
														OFFSET -0.001791 -7.819062 3.754814
														CHANNELS 3 Xrotation Yrotation Zrotation
														End Site
														{
															OFFSET -0.001778 -8.673891 0.000973
														}
													}
												}
											}
										}
									}
								}
							}
							JOINT Reins_Hold
							{
								OFFSET 1.934499 38.066452 -5.878973
								CHANNELS 3 Xrotation Yrotation Zrotation
								End Site
								{
									OFFSET -0.271925 24.359924 -0.037483
								}
							}
						}
						JOINT LegStrap_L_01
						{
							OFFSET 30.289488 -10.399826 -4.182015
							CHANNELS 3 Xrotation Yrotation Zrotation
							JOINT LegStrap_L_02
							{
								OFFSET 1.449100 -2.587517 0.116595
								CHANNELS 3 Xrotation Yrotation Zrotation
								JOINT LegStrap_L_03
								{
									OFFSET 1.740143 -6.952888 -0.664432
									CHANNELS 3 Xrotation Yrotation Zrotation
									JOINT LegStrap_L_04
									{
										OFFSET 1.415886 -4.868759 0.303712
										CHANNELS 3 Xrotation Yrotation Zrotation
										JOINT LegStrap_L_05
										{
											OFFSET 2.000820 -5.372055 -0.672078
											CHANNELS 3 Xrotation Yrotation Zrotation
											JOINT LegStrap_L_06_Twist
											{
												OFFSET 4.795645 -6.062637 -1.248389
												CHANNELS 3 Xrotation Yrotation Zrotation
												End Site
												{
													OFFSET -0.856487 6.998711 3.405405
												}
											}
										}
									}
								}
							}
						}
						JOINT LegStrap_R_01
						{
							OFFSET -28.018677 -11.061813 -11.648318
							CHANNELS 3 Xrotation Yrotation Zrotation
							JOINT LegStrap_R_02
							{
								OFFSET -1.957985 -1.751656 -0.214402
								CHANNELS 3 Xrotation Yrotation Zrotation
								JOINT LegStrap_R_03
								{
									OFFSET -1.047276 -7.230797 -0.134690
									CHANNELS 3 Xrotation Yrotation Zrotation
									JOINT LegStrap_R_04
									{
										OFFSET -1.270832 -7.075516 -1.180974
										CHANNELS 3 Xrotation Yrotation Zrotation
										JOINT LegStrap_R_05
										{
											OFFSET -0.806408 -4.553276 -1.736584
											CHANNELS 3 Xrotation Yrotation Zrotation
											JOINT LegStrap_R_06_Twist
											{
												OFFSET -0.994686 -5.551308 -3.972491
												CHANNELS 3 Xrotation Yrotation Zrotation
												End Site
												{
													OFFSET 6.766247 -0.686455 1.154886
												}
											}
										}
									}
								}
							}
						}
					}
				}
			}
		}
	}
}
MOTION
Frames: 4
Frame Time: 0.033333
0.000000 0.000000 0.000000 0.000005 0.000000 -0.000000 0.003415 4.689985 -0.000496 -0.000012 0.000022 -0.000006 -6.532946 -4.538065 -0.176506 4.365890 -0.009724 0.069459 -2.873819 0.409072 -0.983453 5.023750 -0.453041 0.615362 -0.000004 0.000001 0.000004 0.000012 -0.000000 0.000000 -0.000012 -0.000047 -0.000016 0.000329 0.000028 0.000049 -0.000395 -0.000004 -0.000044 0.000023 0.000023 0.000027 0.000009 0.000097 0.000048 0.000009 -0.000006 -0.000003 -0.000055 -0.000001 0.000001 0.000062 0.000002 0.000001 -0.000024 -0.000000 -0.000001 0.000000 0.000000 0.000001 -0.000000 -0.000000 0.000000 -4.325633 -4.403644 -0.407214 2.605934 -0.190652 0.026720 -1.750472 -0.094767 0.557575 3.454884 -0.018861 -0.521130 -0.000014 0.000001 0.000010 0.000022 -0.000000 -0.000000 1.970973 -7.591840 -1.538223 -2.117492 7.316844 0.849124 -2.240373 -1.152848 -0.263432 3.843133 3.883027 0.156832 0.000028 -0.000017 0.000032 4.365667 -0.729730 5.509805 -3.401822 2.234754 -4.113654 -8.612261 -16.266765 6.255218 -6.659459 -0.381783 0.269732 14.638318 23.261546 -8.916123 1.399454 -0.000016 -0.000036 0.000005 -0.000001 -0.000000 1.783789 1.605072 -2.069106 -8.545137 -0.109350 0.303034 -5.912247 1.371678 -1.515875 8.509547 0.269886 -0.417845 4.731605 -0.049924 0.388760 -0.000000 -0.000031 -0.000046 -3.755063 3.516621 -5.111263 0.000139 -0.000044 -0.000043 -0.000207 -0.000104 -0.000059 -0.000003 -0.000002 -0.000011 -0.000020 -0.000040 -0.000041 0.000002 0.000000 0.000001 -0.000008 -0.000036 -0.000029 0.000015 0.000030 -0.000060 -0.000015 -0.000002 -0.000004 0.000039 0.000003 -0.000150 -0.000026 -0.000010 0.000096 0.000001 0.000003 0.000009 2.565651 -3.888940 8.136861 -11.448096 6.506063 -6.971801 6.816814 -9.739899 -3.285426 22.685828 3.627279 -1.249327 -26.721889 -2.594223 3.546431 5.171786 -0.001032 0.000305 0.000001 0.000000 0.000000 -0.000001 0.000002 -0.000000 -0.000004 -0.000002 0.000029 0.000001 -0.000001 -0.000003 -0.000010 0.000053 0.000002 -0.000013 0.000117 0.000007 0.000004 0.000002 0.000001 -0.000019 0.000017 -0.000011 -0.000008 -0.000013 0.000010 0.000001 -0.000011 0.000001 -0.000002 -0.000010 0.000001 -0.000020 -0.000195 -0.000027 0.000001 -0.000007 -0.000004 -0.000010 -0.000046 -0.000021 
0.000000 0.000000 0.000000 0.000005 0.000000 -0.000000 0.001040 4.532562 0.001160 -0.000011 0.000022 -0.000006 -6.479858 -4.397589 -0.203993 4.339588 -0.011072 0.068789 -2.856411 0.380804 -0.988340 4.986596 -0.431756 0.658267 -0.000002 0.000001 0.000004 0.000012 -0.000000 -0.000000 -0.000017 -0.000047 -0.000017 0.000332 0.000041 0.000064 -0.000389 -0.000004 -0.000044 0.000024 0.000049 0.000044 0.000003 0.000196 0.000096 0.000015 -0.000006 -0.000002 -0.000051 -0.000001 0.000002 0.000063 0.000002 0.000001 -0.000027 -0.000001 -0.000002 -0.000002 -0.000002 0.000000 -0.000001 0.000000 -0.000000 -4.333840 -4.263153 -0.446021 2.605940 -0.190664 0.026725 -1.750478 -0.094769 0.557573 3.462925 -0.000337 -0.474444 0.000002 0.000001 0.000010 0.000002 -0.000000 -0.000000 1.889073 -7.424300 -1.509698 -2.048718 7.165014 0.830647 -2.149194 -1.215565 -0.251838 3.791610 3.808881 0.157570 0.000028 -0.000019 0.000032 4.305145 -0.614124 5.317495 -3.370963 2.078565 -3.967443 -8.494990 -15.926662 6.454427 -6.690491 -0.383594 0.270810 14.757551 23.194301 -9.108788 1.271056 -0.000014 -0.000035 0.000007 0.000001 -0.000000 1.682638 1.496103 -1.925482 -8.536656 -0.048663 0.236771 -5.851921 1.326014 -1.468327 8.695213 0.096959 -0.184627 4.590934 -0.170777 0.462020 0.000007 -0.000066 -0.000086 -3.685897 3.198657 -5.565008 0.000150 -0.000027 -0.000079 -0.000104 0.000059 0.000010 -0.000003 0.000001 -0.000014 -0.000021 -0.000040 -0.000043 -0.000001 0.000002 -0.000001 -0.000003 -0.000030 -0.000038 0.000023 0.000062 -0.000116 -0.000016 -0.000003 -0.000001 0.000053 0.000001 -0.000159 -0.000031 0.000003 0.000097 0.000001 -0.000000 0.000007 2.630290 -3.770018 7.955663 -11.517169 6.344337 -6.852742 7.031344 -9.375623 -3.085120 22.106264 3.528293 -1.204861 -27.122109 -2.602915 3.382023 5.910952 -0.001178 0.000356 0.000004 -0.000000 0.000000 -0.000002 0.000001 -0.000000 -0.000004 -0.000003 0.000024 0.000001 -0.000003 -0.000003 -0.000019 0.000101 -0.000000 -0.000030 0.000219 -0.000004 0.000004 -0.000012 -0.000000 -0.000028 0.000038 -0.000010 -0.000008 -0.000015 0.000005 0.000000 -0.000015 0.000001 0.000001 -0.000012 0.000000 -0.000001 -0.000014 -0.000003 -0.000008 -0.000017 -0.000010 -0.000015 -0.000075 -0.000030 
0.000000 0.000000 0.000000 0.000005 0.000000 -0.000000 0.001321 4.379995 0.000684 -0.000012 0.000022 -0.000006 -6.420705 -4.260052 -0.229867 4.303133 -0.009951 0.068457 -2.832115 0.382505 -0.977837 4.939370 -0.411422 0.696106 -0.000001 0.000001 0.000004 0.000012 -0.000000 -0.000000 -0.000014 -0.000048 -0.000016 0.000328 0.000066 0.000098 -0.000388 -0.000002 -0.000042 0.000025 0.000099 0.000079 0.000017 0.000001 0.000002 0.000013 -0.000006 -0.000002 -0.000050 -0.000001 0.000002 0.000062 0.000002 0.000001 -0.000027 -0.000002 -0.000002 -0.000003 -0.000001 0.000000 -0.000007 0.000000 -0.000001 -4.337685 -4.124891 -0.482364 2.605927 -0.190682 0.026732 -1.750477 -0.094778 0.557565 3.470971 0.018193 -0.427763 -0.000002 0.000001 0.000010 -0.000002 0.000000 0.000000 1.807233 -7.259782 -1.484882 -1.976542 7.013245 0.812417 -2.058066 -1.274792 -0.239773 3.736632 3.734677 0.157910 0.000027 -0.000019 0.000032 4.242220 -0.492734 5.126983 -3.340816 1.925692 -3.823469 -8.375892 -15.587344 6.650177 -6.726780 -0.386040 0.272016 14.872406 23.127710 -9.296325 1.142646 -0.000013 -0.000030 -0.000006 0.000001 -0.000000 1.581961 1.390365 -1.782573 -8.528566 0.009332 0.174630 -5.788047 1.280124 -1.420538 8.874990 -0.072302 0.046224 4.454309 -0.284395 0.533194 0.000008 -0.000139 -0.000165 -3.619053 2.890752 -6.007872 0.000164 0.000009 -0.000161 -0.000105 0.000061 0.000011 -0.000012 0.000004 -0.000017 -0.000009 -0.000040 -0.000038 0.000001 0.000000 -0.000000 -0.000002 -0.000021 -0.000052 0.000011 -0.000003 -0.000001 -0.000002 -0.000002 0.000000 0.000041 0.000008 -0.000145 -0.000062 0.000030 0.000099 -0.000000 0.000001 0.000004 2.693474 -3.652710 7.774596 -11.585181 6.182477 -6.733043 7.260506 -9.011320 -2.890940 21.493468 3.427012 -1.155072 -27.528674 -2.603826 3.220794 6.650099 -0.001322 0.000409 0.000014 -0.000000 0.000000 -0.000000 0.000000 0.000000 -0.000002 -0.000002 0.000020 0.000000 -0.000001 -0.000003 -0.000036 0.000185 -0.000002 0.000005 0.000017 0.000012 0.000021 -0.000035 -0.000004 -0.000067 0.000069 0.000014 -0.000006 -0.000014 0.000000 0.000001 -0.000010 0.000001 0.000001 -0.000017 -0.000001 0.000002 0.000000 -0.000002 -0.000005 -0.000021 -0.000009 -0.000020 -0.000128 -0.000053 
0.000000 0.000000 0.000000 0.000005 0.000000 -0.000000 0.001658 4.227202 0.000194 -0.000011 0.000023 -0.000006 -6.361505 -4.122532 -0.255867 4.266305 -0.008821 0.068121 -2.807803 0.384222 -0.967326 4.895868 -0.387963 0.733313 0.000018 0.000001 0.000004 -0.000007 -0.000000 0.000000 -0.000017 -0.000047 -0.000017 0.000316 0.000117 0.000164 -0.000390 0.000001 -0.000040 0.000031 -0.000001 0.000009 0.000017 0.000001 0.000001 0.000011 -0.000005 -0.000003 -0.000051 -0.000001 0.000002 0.000062 0.000003 0.000001 -0.000025 -0.000000 -0.000001 -0.000001 -0.000002 0.000001 0.000006 0.000000 0.000001 -4.341469 -3.986639 -0.518688 2.600862 -0.190018 0.024623 -1.747978 -0.094684 0.556851 3.474421 0.036168 -0.382079 0.000005 0.000001 0.000010 0.000010 -0.000000 -0.000000 1.721830 -7.091837 -1.459880 -1.903816 6.858689 0.790259 -1.963439 -1.333975 -0.227172 3.681676 3.656988 0.158443 0.000028 -0.000018 0.000032 4.179892 -0.375570 4.937090 -3.310273 1.772882 -3.679421 -8.255073 -15.248906 6.842244 -6.768076 -0.389060 0.273351 14.982505 23.061965 -9.478467 1.026575 -0.000013 -0.000029 -0.000007 0.000001 -0.000000 1.485022 1.284241 -1.639578 -8.520245 0.066586 0.109065 -5.728031 1.231454 -1.371326 9.045016 -0.240399 0.276687 4.314654 -0.395516 0.601404 -0.000004 0.000004 -0.000005 -3.554785 2.585966 -6.439799 0.000121 -0.000068 -0.000003 -0.000108 0.000055 0.000009 -0.000011 0.000008 -0.000009 -0.000004 -0.000039 -0.000041 0.000002 -0.000001 0.000001 0.000006 -0.000006 -0.000085 0.000004 -0.000005 -0.000002 0.000014 -0.000002 0.000003 0.000045 0.000015 -0.000164 -0.000104 0.000090 0.000115 0.000006 0.000005 0.000008 2.755195 -3.537131 7.593732 -11.640855 6.019946 -6.605589 7.500115 -8.643716 -2.702596 20.841088 3.317942 -1.106481 -27.937162 -2.596841 3.066632 7.434990 -0.001475 0.000467 -0.000001 0.000000 0.000000 -0.000001 0.000000 0.000000 -0.000002 -0.000001 0.000015 0.000001 -0.000001 -0.000003 -0.000001 0.000004 -0.000001 0.000001 0.000026 0.000004 0.000038 -0.000085 -0.000025 -0.000098 0.000147 -0.000005 -0.000006 -0.000014 -0.000004 0.000001 -0.000027 0.000001 -0.000005 -0.000043 0.000000 -0.000001 -0.000016 -0.000002 -0.000010 -0.000043 -0.000015 -0.000009 -0.000014 -0.000009 
